# xmcd
#
# Track frame offsets: 
#        150
#        2218
#        20724
#        36090
#        60456
#        79173
#        95239
#        111481
#        127367
#        142803
#        156651
#        173130
#        191610
#        206556
#        222190
#        238552
#        256177
#        276172
#        294355
#        310851
#        328675
#
# Disc length: 4742 seconds
#
# Revision: 1
# Processed by: cddbd v1.5.2PL0 Copyright (c) Steve Scherf et al.
# Submitted via: ExactAudioCopy v1.0b3
#
DISCID=3e128415
DTITLE=Various Artist - Coca Cola Hits 2003
DYEAR=2002
DGENRE=Pop
TTITLE0=Intro
TTITLE1=Plazma - An ordinary miracle
TTITLE2=Las Ketchup - Krapuleo
TTITLE3=DJ AligatoR - Dreams
TTITLE4=Barcode Brothers - Need u
TTITLE5=Sophie Ellis Bextor - Music gets the bets of me
TTITLE6=Sonia and Selena - Viva la noche
TTITLE7=Ann Winsborn - Everything I do
TTITLE8=Club Zone feat. Alicia - Rainy day (electro mix)
TTITLE9=ATB - Watefall 2003
TTITLE10=Chicane - Autumn tactic
TTITLE11=Sugababes and Sting - Shape of my heart
TTITLE12=Robbie Williams - Feel
TTITLE13=Morcheeba - Way beyond
TTITLE14=Blue feat. Elton John - Sorry seems to be the hardest word
TTITLE15=Shakira - Un poco de amor
TTITLE16=Myline Farmer - Pardone-moi
TTITLE17=Shania Twain - I`m gonna getha good!
TTITLE18=a-ha - Did anyone approach you? (turner mix)
TTITLE19=Toni Braxton - And i love you
TTITLE20=Georgie Michael - Last Chistmas
EXTD=
EXTT0=
EXTT1=
EXTT2=
EXTT3=
EXTT4=
EXTT5=
EXTT6=
EXTT7=
EXTT8=
EXTT9=
EXTT10=
EXTT11=
EXTT12=
EXTT13=
EXTT14=
EXTT15=
EXTT16=
EXTT17=
EXTT18=
EXTT19=
EXTT20=
PLAYORDER=
